<?xml version="1.0" encoding="UTF-8"?>
<svg id="finals" xmlns="http://www.w3.org/2000/svg" viewBox="0 0 1270.38 269.13">
  <defs>
    <style>
      .cls-1 {
        fill: #ceb888;
      }

      .cls-1, .cls-2 {
        stroke-width: 0px;
      }

      .cls-2 {
        fill: #782f40;
      }
    </style>
  </defs>
  <g>
    <path class="cls-2" d="M524.09,185.59v-102.08h21.71v84.91h32.63v17.18h-54.34Z"/>
    <path class="cls-2" d="M592.09,185.59v-102.08h21.7v102.08h-21.7Z"/>
    <path class="cls-2" d="M635.34,83.5h30.28c12.04,0,21.1,2.02,27.17,6.07,6.07,4.05,9.11,10.45,9.11,19.2,0,3.96-.6,7.51-1.78,10.65-1.19,3.14-2.94,5.74-5.24,7.79-2.3,2.05-5.07,3.45-8.31,4.19v.7c3.89.93,7.14,2.4,9.75,4.4,2.61,2,4.55,4.62,5.84,7.86,1.29,3.24,1.94,7.11,1.94,11.63,0,6.05-1.38,11.3-4.14,15.75-2.76,4.45-6.69,7.87-11.8,10.26s-11.26,3.6-18.44,3.6h-34.38v-102.08ZM657.05,124.63h9.03c4.86,0,8.38-1.1,10.59-3.32,2.2-2.21,3.3-5.48,3.3-9.81,0-3.86-1.19-6.77-3.57-8.73-2.38-1.96-5.97-2.93-10.78-2.93h-8.57v24.79ZM657.05,140.55v28.28h10.78c4.86,0,8.41-1.22,10.66-3.67,2.25-2.44,3.38-6.04,3.38-10.79,0-2.98-.54-5.49-1.63-7.54-1.09-2.05-2.72-3.61-4.89-4.68-2.18-1.07-4.93-1.61-8.27-1.61h-10.02Z"/>
    <path class="cls-2" d="M748.79,83.5c8.55,0,15.64,1.09,21.29,3.28,5.64,2.19,9.84,5.48,12.6,9.88,2.76,4.4,4.13,9.95,4.13,16.65,0,4.24-.63,8.09-1.9,11.56-1.27,3.47-3.15,6.5-5.65,9.11-2.5,2.61-5.6,4.87-9.29,6.77l24.81,44.83h-23.9l-19.88-39.87h-7.59v39.87h-21.7v-102.08h27.09ZM748.34,100.33h-4.93v29.47h5.39c5.36,0,9.36-1.29,11.99-3.88,2.63-2.58,3.95-6.48,3.95-11.7,0-4.79-1.34-8.31-4.02-10.54-2.68-2.23-6.8-3.35-12.37-3.35Z"/>
    <path class="cls-2" d="M858.75,185.59l-6.22-24.51h-27.85l-6.22,24.51h-23.3l29.37-102.15h27.77l29.67,102.15h-23.22ZM848.81,143.76l-6.38-26.32c-.46-2.09-.92-4.25-1.4-6.46-.48-2.21-.92-4.36-1.33-6.46s-.79-4.03-1.14-5.79c-.2,1.68-.52,3.57-.95,5.69-.43,2.12-.87,4.28-1.33,6.49s-.94,4.32-1.44,6.32l-6.3,26.53h20.26Z"/>
    <path class="cls-2" d="M919.84,83.5c8.55,0,15.64,1.09,21.29,3.28,5.64,2.19,9.84,5.48,12.6,9.88,2.76,4.4,4.14,9.95,4.14,16.65,0,4.24-.63,8.09-1.9,11.56-1.26,3.47-3.15,6.5-5.65,9.11-2.5,2.61-5.6,4.87-9.3,6.77l24.81,44.83h-23.9l-19.88-39.87h-7.59v39.87h-21.71v-102.08h27.09ZM919.38,100.33h-4.93v29.47h5.39c5.36,0,9.36-1.29,11.99-3.88,2.63-2.58,3.95-6.48,3.95-11.7,0-4.79-1.34-8.31-4.02-10.54s-6.8-3.35-12.37-3.35Z"/>
    <path class="cls-2" d="M976.98,185.59v-102.08h21.7v102.08h-21.7Z"/>
    <path class="cls-2" d="M1072.9,185.59h-52.67v-102.08h52.67v16.9h-30.96v23.67h28.76v16.97h-28.76v27.37h30.96v17.18Z"/>
    <path class="cls-2" d="M1146.66,155.98c0,6.14-1.4,11.54-4.21,16.2-2.81,4.66-6.77,8.29-11.88,10.89-5.11,2.61-11.21,3.91-18.29,3.91-3.24,0-6.38-.19-9.41-.56-3.04-.37-5.99-.98-8.88-1.82-2.88-.84-5.77-1.93-8.65-3.28v-20.04c4.35,2.37,8.83,4.22,13.43,5.55,4.6,1.33,8.93,1.99,12.98,1.99,2.93,0,5.36-.48,7.29-1.43,1.92-.95,3.34-2.27,4.25-3.95.91-1.68,1.37-3.54,1.37-5.59,0-2.28-.48-4.28-1.44-6-.96-1.72-2.63-3.43-5.01-5.13-2.38-1.7-5.64-3.62-9.79-5.76-3.09-1.63-5.98-3.35-8.69-5.17-2.71-1.82-5.07-3.85-7.1-6.11-2.03-2.26-3.59-4.91-4.71-7.96-1.11-3.05-1.67-6.67-1.67-10.86-.05-5.82,1.23-10.89,3.83-15.22s6.38-7.69,11.31-10.09c4.93-2.4,10.81-3.57,17.64-3.53,4.75,0,9.38.57,13.89,1.71,4.5,1.14,8.93,2.76,13.28,4.85l-6.22,17.25c-3.9-2-7.51-3.49-10.85-4.47-3.34-.98-6.55-1.47-9.64-1.47-2.58,0-4.72.43-6.41,1.29-1.7.86-3,2.05-3.91,3.56s-1.37,3.25-1.37,5.2c0,2.42.48,4.46,1.44,6.11.96,1.65,2.67,3.28,5.12,4.89,2.45,1.61,5.83,3.5,10.13,5.69,4.81,2.47,8.84,5.07,12.1,7.82,3.26,2.75,5.76,5.85,7.47,9.32,1.72,3.47,2.58,7.53,2.58,12.18Z"/>
  </g>
  <g>
    <rect class="cls-2" x="457.49" y="56.03" width="5.8" height="157.07"/>
    <path class="cls-2" d="M395.38,179.56v-111.64h-28.46v104.62c-3.04.38-11.57.57-17.27.57-6.26,0-15.56-.19-17.64-.57v-104.62h-37s8.92,6.26,8.92,15.75v112.78l1.71.57c.57.19,15.56,4.17,44.02,4.17,25.8,0,49.33-5.12,49.52-5.31l4.93-.95s-8.73-2.09-8.73-15.37ZM383.81,187.91s-8.73,2.47-34.34,2.47c-20.11,0-34.72-2.47-34.72-2.47v-109.17h6.07v103.67s13.47,1.9,28.65,1.9c21.82,0,28.27-1.9,28.27-1.9v-103.67h6.07v109.17Z"/>
    <g>
      <path class="cls-2" d="M129.78,63.46c-29.79,0-53.31,5.5-53.5,5.5l-4.74,1.14,3.98,2.85c4.36,3.23,6.07,6.45,6.26,11.57,0,0-.19,96.56,0,101.69,0,4.74-1.9,7.59-6.26,11l-5.5,3.98h51.8l-5.5-3.98s-6.07-5.12-5.88-11v-34.33h54.64c1.9.19,4.74,1.33,4.74,1.33l3.6,2.28v-35.29l-3.42,2.09s-1.9,1.14-4.55,1.14h-55.02v-31.12s11.19-1.52,17.26-1.52,22.2,1.71,29.79,4.55c8.73,3.42,15.94,9.87,15.94,9.87v-37l-1.9-.38c-.19,0-18.02-4.36-41.74-4.36ZM164.31,86.61s-4.93-2.47-13.09-3.79c-8.35-1.52-11.76-1.9-23.34-2.09-15.94-.38-28.46,1.9-28.46,1.9v51.61h63.18v6.64h-63.18v50.46h-6.83l.19-114.4s13.47-3.04,34.91-3.04c11.57,0,23.34.76,36.62,3.04v9.68Z"/>
      <path class="cls-1" d="M92.78,76.93l-.19,114.4h6.83v-50.46h63.18v-6.64h-63.18v-51.61s12.52-2.28,28.46-1.9c11.57.19,14.99.57,23.34,2.09,8.16,1.33,13.09,3.79,13.09,3.79v-9.68c-13.28-2.28-25.04-3.04-36.62-3.04-21.44,0-34.91,3.04-34.91,3.04Z"/>
    </g>
    <path class="cls-1" d="M377.74,182.41s-6.45,1.9-28.27,1.9c-15.18,0-28.65-1.9-28.65-1.9v-103.67h-6.07v109.17s14.61,2.47,34.72,2.47c25.61,0,34.34-2.47,34.34-2.47v-109.17h-6.07v103.67Z"/>
    <g>
      <path class="cls-2" d="M284.49,180.51v-30.74c0-6.45-4.36-8.35-4.36-8.35l-59.01-36.43v-12.9c3.6-.57,7.02-1.14,22.01-.57,9.68.38,16.51,1.52,22.77,3.6,10.06,3.23,13.85,6.26,13.85,6.26l4.74,3.98-.19-37.38-2.28-.38c-.76-.19-21.82-4.17-44.21-4.17-28.27,0-48.76,5.12-49.71,5.31l-5.69,1.33,4.74,3.61c3.79,2.85,5.5,5.88,5.69,10.43l-.19,26.37c0,8.35,6.26,11.76,6.26,11.76l57.11,35.67v14.61c-3.41.57-8.16,1.14-22.96.57-9.87-.38-15.37-1.71-21.82-3.6-10.43-2.85-18.59-10.25-18.59-10.25v37.19l2.28.57c.95.19,20.87,4.17,43.45,4.17,28.27,0,49.71-5.12,50.66-5.31l5.88-1.33-4.93-3.6c-3.79-2.85-5.31-5.88-5.5-10.43ZM273.49,187.72s-12.9,2.85-33.01,2.85c-11.19,0-24.1-.76-36.62-2.85v-9.11s4.93,2.28,12.52,3.6c7.97,1.33,12.9,1.71,23.72,1.9,15.18.38,26.94-1.71,26.94-1.71v-24.85c0-5.5-5.5-8.54-5.5-8.54l-52.36-32.82s-5.31-3.23-5.31-9.3v-29.98s11.76-2.85,31.87-2.85c11,0,24.85.76,37.57,2.85v9.11s-4.74-2.28-12.33-3.6c-7.97-1.52-14.04-1.71-25.04-1.9-14.99-.38-25.8,1.71-25.8,1.71v22.58c0,5.12,5.12,7.97,5.12,7.97l53.31,33.01s4.93,2.66,4.93,8.54v33.39Z"/>
      <path class="cls-1" d="M268.56,145.79l-53.31-33.01s-5.12-2.85-5.12-7.97v-22.58s10.81-2.09,25.8-1.71c11,.19,17.08.38,25.04,1.9,7.59,1.33,12.33,3.6,12.33,3.6v-9.11c-12.71-2.09-26.56-2.85-37.57-2.85-20.11,0-31.87,2.85-31.87,2.85v29.98c0,6.07,5.31,9.3,5.31,9.3l52.36,32.82s5.5,3.03,5.5,8.54v24.85s-11.76,2.09-26.94,1.71c-10.81-.19-15.75-.57-23.72-1.9-7.59-1.33-12.52-3.6-12.52-3.6v9.11c12.52,2.09,25.42,2.85,36.62,2.85,20.11,0,33.01-2.85,33.01-2.85v-33.39c0-5.88-4.93-8.54-4.93-8.54Z"/>
    </g>
  </g>
</svg>